<svg xmlns="http://www.w3.org/2000/svg" width="1600" height="980" viewBox="0 0 1600 980" role="img" aria-labelledby="title desc">
<title id="title">Hypothesis to priority matrix (draft)</title>
<desc id="desc">Draft matrix linking Four-E hypotheses to initial managerial priority lanes.</desc>
<defs>
<marker id="arrow" markerWidth="14" markerHeight="14" refX="11" refY="7" orient="auto" markerUnits="userSpaceOnUse">
<path d="M0,0 L14,7 L0,14 z" fill="#334155"/>
</marker>
</defs>
<rect width="1600" height="980" fill="#f5f9fc"/>
<rect x="30" y="24" width="1540" height="932" rx="26" fill="#ffffff" stroke="#d7e3ef"/>
<text x="74" y="92" fill="#0f172a" font-size="42" font-family="Manrope,Arial,sans-serif" font-weight="800">Hypothesis-to-priority matrix (draft)</text>
<text x="74" y="126" fill="#475569" font-size="22" font-family="Manrope,Arial,sans-serif">Simple managerial translation from reported pathways.</text>
<rect x="90" y="176" width="210" height="62" fill="#e2e8f0" stroke="#cbd5e1"/>
<text x="195.0" y="214" text-anchor="middle" fill="#0f172a" font-size="20" font-family="Manrope,Arial,sans-serif" font-weight="700">Hypothesis</text>
<rect x="300" y="176" width="310" height="62" fill="#e2e8f0" stroke="#cbd5e1"/>
<text x="455.0" y="214" text-anchor="middle" fill="#0f172a" font-size="20" font-family="Manrope,Arial,sans-serif" font-weight="700">Pathway</text>
<rect x="610" y="176" width="330" height="62" fill="#e2e8f0" stroke="#cbd5e1"/>
<text x="775.0" y="214" text-anchor="middle" fill="#0f172a" font-size="20" font-family="Manrope,Arial,sans-serif" font-weight="700">Reported signal anchor</text>
<rect x="940" y="176" width="500" height="62" fill="#e2e8f0" stroke="#cbd5e1"/>
<text x="1190.0" y="214" text-anchor="middle" fill="#0f172a" font-size="20" font-family="Manrope,Arial,sans-serif" font-weight="700">Priority lane (inferred)</text>
<rect x="90" y="238" width="210" height="98" fill="#f8fafc" stroke="#cbd5e1"/>
<text x="104" y="294" fill="#1e293b" font-size="19" font-family="Manrope,Arial,sans-serif">H2</text>
<rect x="300" y="238" width="310" height="98" fill="#f8fafc" stroke="#cbd5e1"/>
<text x="314" y="294" fill="#1e293b" font-size="19" font-family="Manrope,Arial,sans-serif">CX -&gt; CE</text>
<rect x="610" y="238" width="330" height="98" fill="#f8fafc" stroke="#cbd5e1"/>
<text x="624" y="294" fill="#1e293b" font-size="19" font-family="Manrope,Arial,sans-serif">Experience quality feeds engagement</text>
<rect x="940" y="238" width="500" height="98" fill="#f1f5f9" stroke="#cbd5e1"/>
<text x="954" y="294" fill="#1e293b" font-size="19" font-family="Manrope,Arial,sans-serif">Do first</text>
<rect x="90" y="336" width="210" height="98" fill="#f8fafc" stroke="#cbd5e1"/>
<text x="104" y="392" fill="#1e293b" font-size="19" font-family="Manrope,Arial,sans-serif">H3</text>
<rect x="300" y="336" width="310" height="98" fill="#f8fafc" stroke="#cbd5e1"/>
<text x="314" y="392" fill="#1e293b" font-size="19" font-family="Manrope,Arial,sans-serif">CEX -&gt; CE</text>
<rect x="610" y="336" width="330" height="98" fill="#f8fafc" stroke="#cbd5e1"/>
<text x="624" y="392" fill="#1e293b" font-size="19" font-family="Manrope,Arial,sans-serif">Expectation alignment feeds engagement</text>
<rect x="940" y="336" width="500" height="98" fill="#f1f5f9" stroke="#cbd5e1"/>
<text x="954" y="392" fill="#1e293b" font-size="19" font-family="Manrope,Arial,sans-serif">Do first</text>
<rect x="90" y="434" width="210" height="98" fill="#f8fafc" stroke="#cbd5e1"/>
<text x="104" y="490" fill="#1e293b" font-size="19" font-family="Manrope,Arial,sans-serif">H4</text>
<rect x="300" y="434" width="310" height="98" fill="#f8fafc" stroke="#cbd5e1"/>
<text x="314" y="490" fill="#1e293b" font-size="19" font-family="Manrope,Arial,sans-serif">BE -&gt; CE</text>
<rect x="610" y="434" width="330" height="98" fill="#f8fafc" stroke="#cbd5e1"/>
<text x="624" y="490" fill="#1e293b" font-size="19" font-family="Manrope,Arial,sans-serif">Brand equity transfer feeds engagement</text>
<rect x="940" y="434" width="500" height="98" fill="#f1f5f9" stroke="#cbd5e1"/>
<text x="954" y="490" fill="#1e293b" font-size="19" font-family="Manrope,Arial,sans-serif">Do next</text>
<rect x="90" y="532" width="210" height="98" fill="#f8fafc" stroke="#cbd5e1"/>
<text x="104" y="588" fill="#1e293b" font-size="19" font-family="Manrope,Arial,sans-serif">H1</text>
<rect x="300" y="532" width="310" height="98" fill="#f8fafc" stroke="#cbd5e1"/>
<text x="314" y="588" fill="#1e293b" font-size="19" font-family="Manrope,Arial,sans-serif">CE -&gt; CR</text>
<rect x="610" y="532" width="330" height="98" fill="#f8fafc" stroke="#cbd5e1"/>
<text x="624" y="588" fill="#1e293b" font-size="19" font-family="Manrope,Arial,sans-serif">Engagement bridges to retention</text>
<rect x="940" y="532" width="500" height="98" fill="#f1f5f9" stroke="#cbd5e1"/>
<text x="954" y="588" fill="#1e293b" font-size="19" font-family="Manrope,Arial,sans-serif">Do next</text>
<rect x="90" y="630" width="210" height="98" fill="#f8fafc" stroke="#cbd5e1"/>
<text x="104" y="686" fill="#1e293b" font-size="19" font-family="Manrope,Arial,sans-serif">H5a/H5b/H5c</text>
<rect x="300" y="630" width="310" height="98" fill="#f8fafc" stroke="#cbd5e1"/>
<text x="314" y="686" fill="#1e293b" font-size="19" font-family="Manrope,Arial,sans-serif">(CX,CEX,BE) -&gt; CE -&gt; CR</text>
<rect x="610" y="630" width="330" height="98" fill="#f8fafc" stroke="#cbd5e1"/>
<text x="624" y="686" fill="#1e293b" font-size="19" font-family="Manrope,Arial,sans-serif">Mediation runs through CE</text>
<rect x="940" y="630" width="500" height="98" fill="#f1f5f9" stroke="#cbd5e1"/>
<text x="954" y="686" fill="#1e293b" font-size="19" font-family="Manrope,Arial,sans-serif">Do later</text>
<rect x="90" y="770" width="1420" height="130" rx="18" fill="#f8fafc" stroke="#d7e3ef"/>
<text x="120" y="814" fill="#0f172a" font-size="24" font-family="Manrope,Arial,sans-serif" font-weight="700">Interpretation note</text>
<text x="120" y="850" fill="#475569" font-size="20" font-family="Manrope,Arial,sans-serif">Draft matrix provides translation logic only and does not estimate intervention ranking statistically.</text>
</svg>