<svg xmlns="http://www.w3.org/2000/svg" width="1600" height="1000" viewBox="0 0 1600 1000" role="img" aria-label="Dark blue painterly starry workshop background">
  <defs>
    <radialGradient id="glow" cx="50%" cy="35%" r="70%">
      <stop offset="0" stop-color="#17466b"/>
      <stop offset="0.48" stop-color="#08243a"/>
      <stop offset="1" stop-color="#06131f"/>
    </radialGradient>
    <filter id="soft" x="-20%" y="-20%" width="140%" height="140%">
      <feGaussianBlur stdDeviation="5"/>
    </filter>
    <pattern id="grain" width="92" height="92" patternUnits="userSpaceOnUse">
      <circle cx="8" cy="18" r="1.1" fill="#f8d36b" opacity=".28"/>
      <circle cx="39" cy="7" r=".9" fill="#fff4c7" opacity=".22"/>
      <circle cx="72" cy="46" r="1.2" fill="#f8d36b" opacity=".22"/>
      <circle cx="22" cy="76" r=".8" fill="#ffffff" opacity=".16"/>
      <path d="M0 34c24-11 48 14 92 1" fill="none" stroke="#ffffff" stroke-width=".6" opacity=".04"/>
    </pattern>
  </defs>
  <rect width="1600" height="1000" fill="url(#glow)"/>
  <rect width="1600" height="1000" fill="url(#grain)"/>
  <g fill="none" stroke-linecap="round" opacity=".86">
    <path d="M-90 350c220-170 390-210 570-122 174 85 253 62 366-44 147-138 321-122 514 18 126 91 222 96 340 37" stroke="#d99f37" stroke-width="20" opacity=".62"/>
    <path d="M-50 428c228-166 395-154 571-58 185 101 292 72 424-62 149-151 348-131 547 7 118 82 204 101 324 62" stroke="#f7d46d" stroke-width="10" opacity=".74"/>
    <path d="M-60 520c217-122 401-116 582-16 189 104 321 91 483-38 154-122 333-85 520 48" stroke="#3f8794" stroke-width="18" opacity=".58"/>
    <path d="M65 735c201-72 350-20 503 56 175 87 330 62 468-53 154-128 323-92 520 68" stroke="#d77f32" stroke-width="15" opacity=".45"/>
    <path d="M1040 70c-80 32-127 94-122 156 7 89 114 137 202 99 92-40 102-154 25-205-54-36-121-19-142 25-22 47 20 92 70 75 33-12 41-52 10-68" stroke="#f8d36b" stroke-width="9" opacity=".76"/>
    <path d="M225 120c-64 24-100 75-94 126 9 74 100 106 170 72 65-32 71-113 15-149-38-25-87-14-104 17-18 32 9 64 44 55" stroke="#e8b54e" stroke-width="8" opacity=".58"/>
  </g>
  <g filter="url(#soft)" opacity=".72">
    <circle cx="1190" cy="195" r="48" fill="#e4a83a"/>
    <circle cx="1190" cy="195" r="24" fill="#fff0a3"/>
    <circle cx="305" cy="194" r="34" fill="#d99f37"/>
    <circle cx="305" cy="194" r="17" fill="#fff0a3"/>
    <circle cx="1390" cy="610" r="36" fill="#f1c75e"/>
    <circle cx="1390" cy="610" r="16" fill="#fff2b8"/>
  </g>
  <g fill="#f8d36b" opacity=".84">
    <circle cx="92" cy="275" r="3"/>
    <circle cx="147" cy="820" r="2.5"/>
    <circle cx="462" cy="108" r="2.5"/>
    <circle cx="690" cy="282" r="3.2"/>
    <circle cx="815" cy="782" r="2.3"/>
    <circle cx="1280" cy="388" r="3"/>
    <circle cx="1488" cy="162" r="2.4"/>
  </g>
</svg>
