<svg xmlns="http://www.w3.org/2000/svg" width="2000" height="1200" viewBox="0 0 2000 1200">
  <defs>
    <linearGradient id="bg" x1="0" y1="0" x2="1" y2="1">
      <stop offset="0%" stop-color="#0f172a"/>
      <stop offset="50%" stop-color="#1e1b4b"/>
      <stop offset="100%" stop-color="#111827"/>
    </linearGradient>
    <linearGradient id="card" x1="0" y1="0" x2="0" y2="1">
      <stop offset="0%" stop-color="#ffffff" stop-opacity="0.14"/>
      <stop offset="100%" stop-color="#ffffff" stop-opacity="0.06"/>
    </linearGradient>
    <linearGradient id="funnelA" x1="0" y1="0" x2="1" y2="0">
      <stop offset="0%" stop-color="#22d3ee"/>
      <stop offset="100%" stop-color="#3b82f6"/>
    </linearGradient>
    <linearGradient id="funnelB" x1="0" y1="0" x2="1" y2="0">
      <stop offset="0%" stop-color="#a78bfa"/>
      <stop offset="100%" stop-color="#ec4899"/>
    </linearGradient>
    <linearGradient id="funnelC" x1="0" y1="0" x2="1" y2="0">
      <stop offset="0%" stop-color="#34d399"/>
      <stop offset="100%" stop-color="#10b981"/>
    </linearGradient>
    <filter id="blur" x="-30%" y="-30%" width="160%" height="160%">
      <feGaussianBlur stdDeviation="28"/>
    </filter>
  </defs>

  <rect width="2000" height="1200" fill="url(#bg)"/>
  <circle cx="250" cy="190" r="180" fill="#38bdf8" opacity="0.24" filter="url(#blur)"/>
  <circle cx="1760" cy="940" r="220" fill="#c084fc" opacity="0.22" filter="url(#blur)"/>

  <text x="120" y="120" fill="#e2e8f0" font-family="Inter, Arial, sans-serif" font-size="62" font-weight="700">Leveraging Influencer Strategy</text>
  <text x="120" y="176" fill="#cbd5e1" font-family="Inter, Arial, sans-serif" font-size="31">Strategic framework for moving Gen Z from attention to purchase intention</text>

  <g transform="translate(120 250)">
    <rect x="0" y="0" width="1210" height="860" rx="34" fill="url(#card)" stroke="#cbd5e1" stroke-opacity="0.2"/>
    <text x="48" y="74" fill="#f8fafc" font-family="Inter, Arial, sans-serif" font-size="36" font-weight="600">Influencer Conversion Funnel</text>
    <text x="48" y="112" fill="#cbd5e1" font-family="Inter, Arial, sans-serif" font-size="24">Higher drop-off between trust and purchase suggests confidence-transfer gap</text>

    <rect x="50" y="180" width="1080" height="94" rx="18" fill="url(#funnelA)"/>
    <text x="88" y="240" fill="#f8fafc" font-family="Inter, Arial, sans-serif" font-size="30" font-weight="600">Awareness</text>
    <text x="980" y="240" fill="#f8fafc" font-family="Inter, Arial, sans-serif" font-size="30" font-weight="700">100</text>

    <rect x="130" y="320" width="920" height="94" rx="18" fill="url(#funnelA)"/>
    <text x="166" y="380" fill="#f8fafc" font-family="Inter, Arial, sans-serif" font-size="30" font-weight="600">Engagement</text>
    <text x="910" y="380" fill="#f8fafc" font-family="Inter, Arial, sans-serif" font-size="30" font-weight="700">83</text>

    <rect x="230" y="460" width="720" height="94" rx="18" fill="url(#funnelB)"/>
    <text x="266" y="520" fill="#f8fafc" font-family="Inter, Arial, sans-serif" font-size="30" font-weight="600">Perceived Credibility</text>
    <text x="810" y="520" fill="#f8fafc" font-family="Inter, Arial, sans-serif" font-size="30" font-weight="700">64</text>

    <rect x="330" y="600" width="520" height="94" rx="18" fill="url(#funnelB)"/>
    <text x="366" y="660" fill="#f8fafc" font-family="Inter, Arial, sans-serif" font-size="30" font-weight="600">Trust</text>
    <text x="710" y="660" fill="#f8fafc" font-family="Inter, Arial, sans-serif" font-size="30" font-weight="700">49</text>

    <rect x="450" y="740" width="280" height="94" rx="18" fill="url(#funnelC)"/>
    <text x="485" y="800" fill="#f8fafc" font-family="Inter, Arial, sans-serif" font-size="30" font-weight="600">Purchase Intent</text>
    <text x="646" y="800" fill="#f8fafc" font-family="Inter, Arial, sans-serif" font-size="30" font-weight="700">31</text>
  </g>

  <g transform="translate(1370 250)">
    <rect x="0" y="0" width="510" height="410" rx="30" fill="url(#card)" stroke="#cbd5e1" stroke-opacity="0.2"/>
    <text x="36" y="62" fill="#f8fafc" font-family="Inter, Arial, sans-serif" font-size="32" font-weight="600">Priority Drivers</text>
    <rect x="36" y="110" width="370" height="44" rx="10" fill="#22d3ee" opacity="0.85"/>
    <text x="48" y="140" fill="#082f49" font-family="Inter, Arial, sans-serif" font-size="23" font-weight="700">Authenticity cues</text>
    <text x="430" y="140" fill="#e2e8f0" font-family="Inter, Arial, sans-serif" font-size="22" text-anchor="end">High</text>

    <rect x="36" y="176" width="320" height="44" rx="10" fill="#60a5fa" opacity="0.85"/>
    <text x="48" y="206" fill="#082f49" font-family="Inter, Arial, sans-serif" font-size="23" font-weight="700">Content relevance</text>
    <text x="430" y="206" fill="#e2e8f0" font-family="Inter, Arial, sans-serif" font-size="22" text-anchor="end">High</text>

    <rect x="36" y="242" width="250" height="44" rx="10" fill="#a78bfa" opacity="0.9"/>
    <text x="48" y="272" fill="#1e1b4b" font-family="Inter, Arial, sans-serif" font-size="23" font-weight="700">Visual design</text>
    <text x="430" y="272" fill="#e2e8f0" font-family="Inter, Arial, sans-serif" font-size="22" text-anchor="end">Medium</text>

    <rect x="36" y="308" width="180" height="44" rx="10" fill="#f472b6" opacity="0.9"/>
    <text x="48" y="338" fill="#4a044e" font-family="Inter, Arial, sans-serif" font-size="23" font-weight="700">Novelty</text>
    <text x="430" y="338" fill="#e2e8f0" font-family="Inter, Arial, sans-serif" font-size="22" text-anchor="end">Selective</text>
  </g>

  <g transform="translate(1370 700)">
    <rect x="0" y="0" width="510" height="410" rx="30" fill="url(#card)" stroke="#cbd5e1" stroke-opacity="0.2"/>
    <text x="36" y="62" fill="#f8fafc" font-family="Inter, Arial, sans-serif" font-size="32" font-weight="600">Activation Sequence</text>

    <circle cx="74" cy="130" r="18" fill="#22d3ee"/>
    <text x="108" y="138" fill="#e2e8f0" font-family="Inter, Arial, sans-serif" font-size="24">Creator-fit filtering</text>

    <circle cx="74" cy="198" r="18" fill="#60a5fa"/>
    <text x="108" y="206" fill="#e2e8f0" font-family="Inter, Arial, sans-serif" font-size="24">Narrative trust prompts</text>

    <circle cx="74" cy="266" r="18" fill="#a78bfa"/>
    <text x="108" y="274" fill="#e2e8f0" font-family="Inter, Arial, sans-serif" font-size="24">Social proof amplification</text>

    <circle cx="74" cy="334" r="18" fill="#34d399"/>
    <text x="108" y="342" fill="#e2e8f0" font-family="Inter, Arial, sans-serif" font-size="24">Offer conversion handoff</text>
  </g>
</svg>
