<svg xmlns="http://www.w3.org/2000/svg" width="1800" height="1000" viewBox="0 0 1800 1000" role="img" aria-labelledby="title desc">
  <title id="title">Psychological Ownership Framework</title>
  <desc id="desc">Individual and collective ownership pathways into affective commitment outcomes.</desc>
  <defs>
    <linearGradient id="bg" x1="0" y1="0" x2="1" y2="1">
      <stop offset="0" stop-color="#f59e0b" stop-opacity="0.14"/>
      <stop offset="0.55" stop-color="#7c3aed" stop-opacity="0.12"/>
      <stop offset="1" stop-color="#22c55e" stop-opacity="0.14"/>
    </linearGradient>
    <linearGradient id="headline" x1="0" y1="0" x2="1" y2="0">
      <stop offset="0" stop-color="#f59e0b"/>
      <stop offset="1" stop-color="#7c3aed"/>
    </linearGradient>
    <linearGradient id="signal" x1="0" y1="0" x2="1" y2="0">
      <stop offset="0" stop-color="#f59e0b"/>
      <stop offset="0.5" stop-color="#7c3aed"/>
      <stop offset="1" stop-color="#22c55e"/>
    </linearGradient>
    <filter id="softShadow" x="-20%" y="-20%" width="140%" height="140%">
      <feDropShadow dx="0" dy="8" stdDeviation="10" flood-color="#0f172a" flood-opacity="0.16"/>
    </filter>
  </defs>

  <rect width="1800" height="1000" rx="34.69" fill="url(#bg)"/>
  <rect x="24.75" y="22.45" width="1750.5" height="955.1" rx="26.53" fill="rgba(255,255,255,0.92)" stroke="rgba(51,65,85,0.22)"/>

  <g font-family="'Sora','Manrope','Space Grotesk',Inter,Arial,sans-serif">
    <text x="65.25" y="93.88" fill="#0f172a" font-size="48.98" font-weight="700">Psychological Ownership Framework</text>
    <text x="65.25" y="134.69" fill="#334155" font-size="24.49">Individual and collective ownership pathways into affective commitment outcomes.</text>

    <rect x="65.25" y="44.9" width="328.5" height="40.82" rx="14.29" fill="rgba(255,255,255,0.9)" stroke="rgba(51,65,85,0.24)"/>
    <text x="85.5" y="71.43" fill="url(#headline)" font-size="18.37" font-weight="700">Conceptual Translation</text>

    <rect x="65.25" y="159.18" width="1669.5" height="134.69" rx="20.41" fill="rgba(241,245,249,0.7)" stroke="rgba(51,65,85,0.18)"/>
    
      <g>
        <rect x="87.75" y="177.55" width="427.5" height="42.86" rx="12.24" fill="rgba(255,255,255,0.72)" stroke="rgba(51,65,85,0.22)"/>
        <text x="108" y="205.10000000000002" fill="#0f172a" font-size="18.37" font-weight="600">Individual ownership</text>
      </g>
      <g>
        <rect x="549" y="177.55" width="427.5" height="42.86" rx="12.24" fill="rgba(255,255,255,0.72)" stroke="rgba(51,65,85,0.22)"/>
        <text x="569.25" y="205.10000000000002" fill="#0f172a" font-size="18.37" font-weight="600">Collective ownership</text>
      </g>
      <g>
        <rect x="1010.25" y="177.55" width="427.5" height="42.86" rx="12.24" fill="rgba(255,255,255,0.72)" stroke="rgba(51,65,85,0.22)"/>
        <text x="1030.5" y="205.10000000000002" fill="#0f172a" font-size="18.37" font-weight="600">Affective commitment</text>
      </g>
      <g>
        <rect x="87.75" y="234.69" width="427.5" height="42.86" rx="12.24" fill="rgba(255,255,255,0.72)" stroke="rgba(51,65,85,0.22)"/>
        <text x="108" y="262.24" fill="#0f172a" font-size="18.37" font-weight="600">Retention + discretionary effort</text>
      </g>

    <g filter="url(#softShadow)">
      <rect x="65.25" y="255.1" width="1669.5" height="669.39" rx="22.45" fill="rgba(255,255,255,0.84)" stroke="rgba(51,65,85,0.2)"/>
    </g>

    <path d="M 198.81 383.67 C 599.49 340.81 1200.51 426.53 1601.19 383.67" fill="none" stroke="url(#signal)" stroke-width="9.18" stroke-linecap="round" opacity="0.92"/>
    <circle cx="198.81" cy="397.96" r="11.22" fill="#f59e0b"/>
      <circle cx="699.66" cy="369.38" r="11.22" fill="#7c3aed"/>
      <circle cx="1200.51" cy="397.96" r="11.22" fill="#22c55e"/>
      <circle cx="1601.19" cy="369.38" r="11.22" fill="#f59e0b"/>

    
      <g>
        <rect x="92.25" y="436.73" width="520.5" height="244.9" rx="20.41" fill="rgba(255,255,255,0.88)" stroke="rgba(51,65,85,0.22)"/>
        <rect x="108" y="453.06" width="489" height="6.12" rx="3.06" fill="#f59e0b" opacity="0.9"/>
        <text x="117" y="502.04" fill="#0f172a" font-size="30.61" font-weight="700">Path A</text>
        <text x="117" y="546.9300000000001" fill="#334155" font-size="21.43">Identity and control cues strengthen personal ownership signals.</text>
      </g>
      <g>
        <rect x="639.75" y="436.73" width="520.5" height="244.9" rx="20.41" fill="rgba(255,255,255,0.88)" stroke="rgba(51,65,85,0.22)"/>
        <rect x="655.5" y="453.06" width="489" height="6.12" rx="3.06" fill="#7c3aed" opacity="0.9"/>
        <text x="664.5" y="502.04" fill="#0f172a" font-size="30.61" font-weight="700">Path B</text>
        <text x="664.5" y="546.9300000000001" fill="#334155" font-size="21.43">Shared norms and collective meaning reinforce group ownership.</text>
      </g>
      <g>
        <rect x="1187.25" y="436.73" width="520.5" height="244.9" rx="20.41" fill="rgba(255,255,255,0.88)" stroke="rgba(51,65,85,0.22)"/>
        <rect x="1203" y="453.06" width="489" height="6.12" rx="3.06" fill="#22c55e" opacity="0.9"/>
        <text x="1212" y="502.04" fill="#0f172a" font-size="30.61" font-weight="700">Outcome path</text>
        <text x="1212" y="546.9300000000001" fill="#334155" font-size="21.43">Commitment transfers into retention and engagement behavior.</text>
      </g>

    <rect x="85.5" y="865.31" width="1629" height="79.59" rx="14.29" fill="rgba(248,250,252,0.9)" stroke="rgba(51,65,85,0.2)"/>
    <text x="105.75" y="912.24" fill="#334155" font-size="22.45">Framework remains conceptual where public fit indices are unavailable.</text>
  </g>
</svg>
