<svg xmlns="http://www.w3.org/2000/svg" width="1600" height="980" viewBox="0 0 1600 980" role="img" aria-labelledby="title desc">
<title id="title">Mixed Logit Effects (Draft)</title>
<desc id="desc">Diverging coefficient chart from Table 3.</desc>
<rect width="1600" height="980" fill="#f5f9ff"/>
<rect x="28" y="24" width="1544" height="932" rx="24" fill="#ffffff" stroke="#d7e3f4"/>
<text x="72" y="90" fill="#0f172a" font-size="44" font-family="Manrope,Arial,sans-serif" font-weight="800">Mixed Logit Core Effects</text>
<text x="72" y="128" fill="#475569" font-size="24" font-family="Manrope,Arial,sans-serif">CIEMB Table 3 coefficients for Hanoi phase-out package attributes.</text>
<line x1="390.91" y1="190" x2="390.91" y2="850" stroke="#cbd5e1" stroke-dasharray="4 6"/>
<text x="390.91" y="880" text-anchor="middle" fill="#475569" font-size="16" font-family="Manrope,Arial,sans-serif">-2.0</text>
<line x1="595.45" y1="190" x2="595.45" y2="850" stroke="#cbd5e1" stroke-dasharray="4 6"/>
<text x="595.45" y="880" text-anchor="middle" fill="#475569" font-size="16" font-family="Manrope,Arial,sans-serif">-1.0</text>
<line x1="800.00" y1="190" x2="800.00" y2="850" stroke="#cbd5e1" stroke-dasharray="4 6"/>
<text x="800.00" y="880" text-anchor="middle" fill="#475569" font-size="16" font-family="Manrope,Arial,sans-serif">+0.0</text>
<line x1="1004.55" y1="190" x2="1004.55" y2="850" stroke="#cbd5e1" stroke-dasharray="4 6"/>
<text x="1004.55" y="880" text-anchor="middle" fill="#475569" font-size="16" font-family="Manrope,Arial,sans-serif">+1.0</text>
<line x1="1209.09" y1="190" x2="1209.09" y2="850" stroke="#cbd5e1" stroke-dasharray="4 6"/>
<text x="1209.09" y="880" text-anchor="middle" fill="#475569" font-size="16" font-family="Manrope,Arial,sans-serif">+2.0</text>
<line x1="800.00" y1="190" x2="800.00" y2="850" stroke="#1e293b" stroke-width="2.4"/>
<rect x="441.64" y="201.22" width="358.36" height="43.56" rx="8" fill="#dc6b5f" opacity="0.92"/>
<text x="334" y="229.00" text-anchor="end" fill="#0f172a" font-size="20" font-family="Manrope,Arial,sans-serif">Ban all motorcycles</text>
<text x="431.64" y="229.00" text-anchor="end" fill="#0f172a" font-size="18" font-family="Manrope,Arial,sans-serif" font-weight="700">-1.752</text>
<rect x="619.18" y="267.22" width="180.82" height="43.56" rx="8" fill="#dc6b5f" opacity="0.92"/>
<text x="334" y="295.00" text-anchor="end" fill="#0f172a" font-size="20" font-family="Manrope,Arial,sans-serif">Ban older motorcycles</text>
<text x="609.18" y="295.00" text-anchor="end" fill="#0f172a" font-size="18" font-family="Manrope,Arial,sans-serif" font-weight="700">-0.884</text>
<rect x="756.02" y="333.22" width="43.98" height="43.56" rx="8" fill="#dc6b5f" opacity="0.92"/>
<text x="334" y="361.00" text-anchor="end" fill="#0f172a" font-size="20" font-family="Manrope,Arial,sans-serif">Monthly cost increase</text>
<text x="746.02" y="361.00" text-anchor="end" fill="#0f172a" font-size="18" font-family="Manrope,Arial,sans-serif" font-weight="700">-0.215</text>
<rect x="800.00" y="399.22" width="64.43" height="43.56" rx="8" fill="#3a86c8" opacity="0.92"/>
<text x="334" y="427.00" text-anchor="end" fill="#0f172a" font-size="20" font-family="Manrope,Arial,sans-serif">Revenue reinvestment</text>
<text x="874.43" y="427.00" text-anchor="start" fill="#0f172a" font-size="18" font-family="Manrope,Arial,sans-serif" font-weight="700">+0.315</text>
<rect x="800.00" y="465.22" width="73.43" height="43.56" rx="8" fill="#2a9d8f" opacity="0.92"/>
<text x="334" y="493.00" text-anchor="end" fill="#0f172a" font-size="20" font-family="Manrope,Arial,sans-serif">Guarded park and ride</text>
<text x="883.43" y="493.00" text-anchor="start" fill="#0f172a" font-size="18" font-family="Manrope,Arial,sans-serif" font-weight="700">+0.359</text>
<rect x="800.00" y="531.22" width="84.07" height="43.56" rx="8" fill="#2a9d8f" opacity="0.92"/>
<text x="334" y="559.00" text-anchor="end" fill="#0f172a" font-size="20" font-family="Manrope,Arial,sans-serif">PT fare reduction</text>
<text x="894.07" y="559.00" text-anchor="start" fill="#0f172a" font-size="18" font-family="Manrope,Arial,sans-serif" font-weight="700">+0.411</text>
<rect x="800.00" y="597.22" width="120.27" height="43.56" rx="8" fill="#2a9d8f" opacity="0.92"/>
<text x="334" y="625.00" text-anchor="end" fill="#0f172a" font-size="20" font-family="Manrope,Arial,sans-serif">More green space</text>
<text x="930.27" y="625.00" text-anchor="start" fill="#0f172a" font-size="18" font-family="Manrope,Arial,sans-serif" font-weight="700">+0.588</text>
<rect x="800.00" y="663.22" width="150.34" height="43.56" rx="8" fill="#2a9d8f" opacity="0.92"/>
<text x="334" y="691.00" text-anchor="end" fill="#0f172a" font-size="20" font-family="Manrope,Arial,sans-serif">PT frequency/coverage</text>
<text x="960.34" y="691.00" text-anchor="start" fill="#0f172a" font-size="18" font-family="Manrope,Arial,sans-serif" font-weight="700">+0.735</text>
<rect x="800.00" y="729.22" width="195.55" height="43.56" rx="8" fill="#3a86c8" opacity="0.92"/>
<text x="334" y="757.00" text-anchor="end" fill="#0f172a" font-size="20" font-family="Manrope,Arial,sans-serif">Financial support</text>
<text x="1005.55" y="757.00" text-anchor="start" fill="#0f172a" font-size="18" font-family="Manrope,Arial,sans-serif" font-weight="700">+0.956</text>
<rect x="800.00" y="795.22" width="331.57" height="43.56" rx="8" fill="#6d597a" opacity="0.92"/>
<text x="334" y="823.00" text-anchor="end" fill="#0f172a" font-size="20" font-family="Manrope,Arial,sans-serif">Status quo ASC</text>
<text x="1141.57" y="823.00" text-anchor="start" fill="#0f172a" font-size="18" font-family="Manrope,Arial,sans-serif" font-weight="700">+1.621</text>
<text x="800.00" y="914" text-anchor="middle" fill="#475569" font-size="20" font-family="Manrope,Arial,sans-serif">Coefficient β</text>
<rect x="360" y="860" width="24" height="24" rx="6" fill="#dc6b5f"/>
<text x="394" y="878" fill="#0f172a" font-size="18" font-family="Manrope,Arial,sans-serif">Push</text>
<rect x="580" y="860" width="24" height="24" rx="6" fill="#2a9d8f"/>
<text x="614" y="878" fill="#0f172a" font-size="18" font-family="Manrope,Arial,sans-serif">Pull</text>
<rect x="800" y="860" width="24" height="24" rx="6" fill="#3a86c8"/>
<text x="834" y="878" fill="#0f172a" font-size="18" font-family="Manrope,Arial,sans-serif">Support/process</text>
<rect x="1020" y="860" width="24" height="24" rx="6" fill="#6d597a"/>
<text x="1054" y="878" fill="#0f172a" font-size="18" font-family="Manrope,Arial,sans-serif">Status quo</text>
<text x="800" y="930" text-anchor="middle" fill="#475569" font-size="16" font-family="Manrope,Arial,sans-serif">Source: CIEMB revised manuscript Table 3.</text>
</svg>