<svg xmlns="http://www.w3.org/2000/svg" width="1600" height="980" viewBox="0 0 1600 980" role="img" aria-labelledby="title desc">
  <title id="title">Campus Action Priority Matrix</title>
  <desc id="desc">Impact potential versus implementation feasibility for intervention sequencing.</desc>
  <defs>
    <linearGradient id="bg" x1="0" y1="0" x2="1" y2="1">
      <stop offset="0" stop-color="#b45309" stop-opacity="0.14"/>
      <stop offset="0.55" stop-color="#16a34a" stop-opacity="0.12"/>
      <stop offset="1" stop-color="#0ea5e9" stop-opacity="0.14"/>
    </linearGradient>
    <linearGradient id="headline" x1="0" y1="0" x2="1" y2="0">
      <stop offset="0" stop-color="#b45309"/>
      <stop offset="1" stop-color="#16a34a"/>
    </linearGradient>
    <linearGradient id="signal" x1="0" y1="0" x2="1" y2="0">
      <stop offset="0" stop-color="#b45309"/>
      <stop offset="0.5" stop-color="#16a34a"/>
      <stop offset="1" stop-color="#0ea5e9"/>
    </linearGradient>
    <filter id="softShadow" x="-20%" y="-20%" width="140%" height="140%">
      <feDropShadow dx="0" dy="8" stdDeviation="10" flood-color="#0f172a" flood-opacity="0.16"/>
    </filter>
  </defs>

  <rect width="1600" height="980" rx="34" fill="url(#bg)"/>
  <rect x="22" y="22" width="1556" height="936" rx="26" fill="rgba(255,255,255,0.92)" stroke="rgba(51,65,85,0.22)"/>

  <g font-family="'Sora','Manrope','Space Grotesk',Inter,Arial,sans-serif">
    <text x="58" y="92" fill="#0f172a" font-size="48" font-weight="700">Campus Action Priority Matrix</text>
    <text x="58" y="132" fill="#334155" font-size="24">Impact potential versus implementation feasibility for intervention sequencing.</text>

    <rect x="58" y="44" width="292" height="40" rx="14" fill="rgba(255,255,255,0.9)" stroke="rgba(51,65,85,0.24)"/>
    <text x="76" y="70" fill="url(#headline)" font-size="18" font-weight="700">Illustrative Index</text>

    <rect x="58" y="156" width="1484" height="132" rx="20" fill="rgba(241,245,249,0.7)" stroke="rgba(51,65,85,0.18)"/>
    
      <g>
        <rect x="78" y="174" width="380" height="42" rx="12" fill="rgba(255,255,255,0.72)" stroke="rgba(51,65,85,0.22)"/>
        <text x="96" y="201" fill="#0f172a" font-size="18" font-weight="600">Literacy core</text>
      </g>
      <g>
        <rect x="488" y="174" width="380" height="42" rx="12" fill="rgba(255,255,255,0.72)" stroke="rgba(51,65,85,0.22)"/>
        <text x="506" y="201" fill="#0f172a" font-size="18" font-weight="600">Activity-linked planning</text>
      </g>
      <g>
        <rect x="898" y="174" width="380" height="42" rx="12" fill="rgba(255,255,255,0.72)" stroke="rgba(51,65,85,0.22)"/>
        <text x="916" y="201" fill="#0f172a" font-size="18" font-weight="600">Environment redesign</text>
      </g>
      <g>
        <rect x="78" y="230" width="380" height="42" rx="12" fill="rgba(255,255,255,0.72)" stroke="rgba(51,65,85,0.22)"/>
        <text x="96" y="257" fill="#0f172a" font-size="18" font-weight="600">Awareness support</text>
      </g>

    <g filter="url(#softShadow)">
      <rect x="58" y="250" width="1484" height="656" rx="22" fill="rgba(255,255,255,0.84)" stroke="rgba(51,65,85,0.2)"/>
    </g>

    <path d="M 176.72 376.00 C 532.88 334.00 1067.12 418.00 1423.28 376.00" fill="none" stroke="url(#signal)" stroke-width="9" stroke-linecap="round" opacity="0.92"/>
    <circle cx="176.72" cy="390.00" r="11" fill="#b45309"/>
      <circle cx="621.92" cy="362.00" r="11" fill="#16a34a"/>
      <circle cx="1067.12" cy="390.00" r="11" fill="#0ea5e9"/>
      <circle cx="1423.28" cy="362.00" r="11" fill="#b45309"/>

    
      <g>
        <rect x="82" y="428" width="462.6666666666667" height="240" rx="20" fill="rgba(255,255,255,0.88)" stroke="rgba(51,65,85,0.22)"/>
        <rect x="96" y="444" width="434.6666666666667" height="6" rx="3" fill="#b45309" opacity="0.9"/>
        <text x="104" y="492" fill="#0f172a" font-size="30" font-weight="700">Priority lane</text>
        <text x="104" y="536" fill="#334155" font-size="21">Literacy and behavior coupling offer high impact with feasible rollout.</text>
      </g>
      <g>
        <rect x="568.6666666666667" y="428" width="462.6666666666667" height="240" rx="20" fill="rgba(255,255,255,0.88)" stroke="rgba(51,65,85,0.22)"/>
        <rect x="582.6666666666667" y="444" width="434.6666666666667" height="6" rx="3" fill="#16a34a" opacity="0.9"/>
        <text x="590.6666666666667" y="492" fill="#0f172a" font-size="30" font-weight="700">High-effort lane</text>
        <text x="590.6666666666667" y="536" fill="#334155" font-size="21">Food environment redesign can be high impact but costlier to execute.</text>
      </g>
      <g>
        <rect x="1055.3333333333335" y="428" width="462.6666666666667" height="240" rx="20" fill="rgba(255,255,255,0.88)" stroke="rgba(51,65,85,0.22)"/>
        <rect x="1069.3333333333335" y="444" width="434.6666666666667" height="6" rx="3" fill="#0ea5e9" opacity="0.9"/>
        <text x="1077.3333333333335" y="492" fill="#0f172a" font-size="30" font-weight="700">Support lane</text>
        <text x="1077.3333333333335" y="536" fill="#334155" font-size="21">General awareness campaigns reinforce but rarely drive primary shift.</text>
      </g>

    <rect x="76" y="848" width="1448" height="78" rx="14" fill="rgba(248,250,252,0.9)" stroke="rgba(51,65,85,0.2)"/>
    <text x="94" y="894" fill="#334155" font-size="22">Use phased sequencing rather than parallel blanket interventions.</text>
  </g>
</svg>
