<svg xmlns="http://www.w3.org/2000/svg" width="1600" height="980" viewBox="0 0 1600 980" role="img" aria-labelledby="title desc">
<title id="title">Mixed Logit Effects (Enhanced)</title>
<desc id="desc">Diverging coefficient chart from Table 3.</desc>
<rect width="1600" height="980" fill="#f5f9ff"/>
<rect x="28" y="24" width="1544" height="932" rx="24" fill="#ffffff" stroke="#d7e3f4"/>
<text x="72" y="90" fill="#0f172a" font-size="44" font-family="Manrope,Arial,sans-serif" font-weight="800">Mixed Logit Core Effects with 95% CI</text>
<text x="72" y="128" fill="#475569" font-size="24" font-family="Manrope,Arial,sans-serif">CIEMB Table 3 coefficients for Hanoi phase-out package attributes.</text>
<line x1="388.18" y1="190" x2="388.18" y2="850" stroke="#cbd5e1" stroke-dasharray="4 6"/>
<text x="388.18" y="880" text-anchor="middle" fill="#475569" font-size="16" font-family="Manrope,Arial,sans-serif">-2.0</text>
<line x1="579.09" y1="190" x2="579.09" y2="850" stroke="#cbd5e1" stroke-dasharray="4 6"/>
<text x="579.09" y="880" text-anchor="middle" fill="#475569" font-size="16" font-family="Manrope,Arial,sans-serif">-1.0</text>
<line x1="770.00" y1="190" x2="770.00" y2="850" stroke="#cbd5e1" stroke-dasharray="4 6"/>
<text x="770.00" y="880" text-anchor="middle" fill="#475569" font-size="16" font-family="Manrope,Arial,sans-serif">+0.0</text>
<line x1="960.91" y1="190" x2="960.91" y2="850" stroke="#cbd5e1" stroke-dasharray="4 6"/>
<text x="960.91" y="880" text-anchor="middle" fill="#475569" font-size="16" font-family="Manrope,Arial,sans-serif">+1.0</text>
<line x1="1151.82" y1="190" x2="1151.82" y2="850" stroke="#cbd5e1" stroke-dasharray="4 6"/>
<text x="1151.82" y="880" text-anchor="middle" fill="#475569" font-size="16" font-family="Manrope,Arial,sans-serif">+2.0</text>
<line x1="770.00" y1="190" x2="770.00" y2="850" stroke="#1e293b" stroke-width="2.4"/>
<rect x="435.53" y="201.22" width="334.47" height="43.56" rx="8" fill="#dc6b5f" opacity="0.92"/>
<line x1="389.50" y1="223.00" x2="481.55" y2="223.00" stroke="#0f172a" stroke-width="1.8"/>
<line x1="389.50" y1="217.00" x2="389.50" y2="229.00" stroke="#0f172a" stroke-width="1.8"/>
<line x1="481.55" y1="217.00" x2="481.55" y2="229.00" stroke="#0f172a" stroke-width="1.8"/>
<text x="334" y="229.00" text-anchor="end" fill="#0f172a" font-size="20" font-family="Manrope,Arial,sans-serif">Ban all motorcycles</text>
<text x="425.53" y="229.00" text-anchor="end" fill="#0f172a" font-size="18" font-family="Manrope,Arial,sans-serif" font-weight="700">-1.752</text>
<rect x="601.24" y="267.22" width="168.76" height="43.56" rx="8" fill="#dc6b5f" opacity="0.92"/>
<line x1="567.19" y1="289.00" x2="635.29" y2="289.00" stroke="#0f172a" stroke-width="1.8"/>
<line x1="567.19" y1="283.00" x2="567.19" y2="295.00" stroke="#0f172a" stroke-width="1.8"/>
<line x1="635.29" y1="283.00" x2="635.29" y2="295.00" stroke="#0f172a" stroke-width="1.8"/>
<text x="334" y="295.00" text-anchor="end" fill="#0f172a" font-size="20" font-family="Manrope,Arial,sans-serif">Ban older motorcycles</text>
<text x="591.24" y="295.00" text-anchor="end" fill="#0f172a" font-size="18" font-family="Manrope,Arial,sans-serif" font-weight="700">-0.884</text>
<rect x="728.95" y="333.22" width="41.05" height="43.56" rx="8" fill="#dc6b5f" opacity="0.92"/>
<line x1="719.97" y1="355.00" x2="737.93" y2="355.00" stroke="#0f172a" stroke-width="1.8"/>
<line x1="719.97" y1="349.00" x2="719.97" y2="361.00" stroke="#0f172a" stroke-width="1.8"/>
<line x1="737.93" y1="349.00" x2="737.93" y2="361.00" stroke="#0f172a" stroke-width="1.8"/>
<text x="334" y="361.00" text-anchor="end" fill="#0f172a" font-size="20" font-family="Manrope,Arial,sans-serif">Monthly cost increase</text>
<text x="718.95" y="361.00" text-anchor="end" fill="#0f172a" font-size="18" font-family="Manrope,Arial,sans-serif" font-weight="700">-0.215</text>
<rect x="770.00" y="399.22" width="60.14" height="43.56" rx="8" fill="#3a86c8" opacity="0.92"/>
<line x1="803.20" y1="421.00" x2="857.08" y2="421.00" stroke="#0f172a" stroke-width="1.8"/>
<line x1="803.20" y1="415.00" x2="803.20" y2="427.00" stroke="#0f172a" stroke-width="1.8"/>
<line x1="857.08" y1="415.00" x2="857.08" y2="427.00" stroke="#0f172a" stroke-width="1.8"/>
<text x="334" y="427.00" text-anchor="end" fill="#0f172a" font-size="20" font-family="Manrope,Arial,sans-serif">Revenue reinvestment</text>
<text x="840.14" y="427.00" text-anchor="start" fill="#0f172a" font-size="18" font-family="Manrope,Arial,sans-serif" font-weight="700">+0.315</text>
<rect x="770.00" y="465.22" width="68.54" height="43.56" rx="8" fill="#2a9d8f" opacity="0.92"/>
<line x1="814.21" y1="487.00" x2="862.86" y2="487.00" stroke="#0f172a" stroke-width="1.8"/>
<line x1="814.21" y1="481.00" x2="814.21" y2="493.00" stroke="#0f172a" stroke-width="1.8"/>
<line x1="862.86" y1="481.00" x2="862.86" y2="493.00" stroke="#0f172a" stroke-width="1.8"/>
<text x="334" y="493.00" text-anchor="end" fill="#0f172a" font-size="20" font-family="Manrope,Arial,sans-serif">Guarded park and ride</text>
<text x="848.54" y="493.00" text-anchor="start" fill="#0f172a" font-size="18" font-family="Manrope,Arial,sans-serif" font-weight="700">+0.359</text>
<rect x="770.00" y="531.22" width="78.46" height="43.56" rx="8" fill="#2a9d8f" opacity="0.92"/>
<line x1="822.65" y1="553.00" x2="874.28" y2="553.00" stroke="#0f172a" stroke-width="1.8"/>
<line x1="822.65" y1="547.00" x2="822.65" y2="559.00" stroke="#0f172a" stroke-width="1.8"/>
<line x1="874.28" y1="547.00" x2="874.28" y2="559.00" stroke="#0f172a" stroke-width="1.8"/>
<text x="334" y="559.00" text-anchor="end" fill="#0f172a" font-size="20" font-family="Manrope,Arial,sans-serif">PT fare reduction</text>
<text x="858.46" y="559.00" text-anchor="start" fill="#0f172a" font-size="18" font-family="Manrope,Arial,sans-serif" font-weight="700">+0.411</text>
<rect x="770.00" y="597.22" width="112.25" height="43.56" rx="8" fill="#2a9d8f" opacity="0.92"/>
<line x1="851.95" y1="619.00" x2="912.56" y2="619.00" stroke="#0f172a" stroke-width="1.8"/>
<line x1="851.95" y1="613.00" x2="851.95" y2="625.00" stroke="#0f172a" stroke-width="1.8"/>
<line x1="912.56" y1="613.00" x2="912.56" y2="625.00" stroke="#0f172a" stroke-width="1.8"/>
<text x="334" y="625.00" text-anchor="end" fill="#0f172a" font-size="20" font-family="Manrope,Arial,sans-serif">More green space</text>
<text x="892.25" y="625.00" text-anchor="start" fill="#0f172a" font-size="18" font-family="Manrope,Arial,sans-serif" font-weight="700">+0.588</text>
<rect x="770.00" y="663.22" width="140.32" height="43.56" rx="8" fill="#2a9d8f" opacity="0.92"/>
<line x1="877.39" y1="685.00" x2="943.25" y2="685.00" stroke="#0f172a" stroke-width="1.8"/>
<line x1="877.39" y1="679.00" x2="877.39" y2="691.00" stroke="#0f172a" stroke-width="1.8"/>
<line x1="943.25" y1="679.00" x2="943.25" y2="691.00" stroke="#0f172a" stroke-width="1.8"/>
<text x="334" y="691.00" text-anchor="end" fill="#0f172a" font-size="20" font-family="Manrope,Arial,sans-serif">PT frequency/coverage</text>
<text x="920.32" y="691.00" text-anchor="start" fill="#0f172a" font-size="18" font-family="Manrope,Arial,sans-serif" font-weight="700">+0.735</text>
<rect x="770.00" y="729.22" width="182.51" height="43.56" rx="8" fill="#3a86c8" opacity="0.92"/>
<line x1="915.47" y1="751.00" x2="989.55" y2="751.00" stroke="#0f172a" stroke-width="1.8"/>
<line x1="915.47" y1="745.00" x2="915.47" y2="757.00" stroke="#0f172a" stroke-width="1.8"/>
<line x1="989.55" y1="745.00" x2="989.55" y2="757.00" stroke="#0f172a" stroke-width="1.8"/>
<text x="334" y="757.00" text-anchor="end" fill="#0f172a" font-size="20" font-family="Manrope,Arial,sans-serif">Financial support</text>
<text x="962.51" y="757.00" text-anchor="start" fill="#0f172a" font-size="18" font-family="Manrope,Arial,sans-serif" font-weight="700">+0.956</text>
<rect x="770.00" y="795.22" width="309.46" height="43.56" rx="8" fill="#6d597a" opacity="0.92"/>
<line x1="1021.84" y1="817.00" x2="1137.09" y2="817.00" stroke="#0f172a" stroke-width="1.8"/>
<line x1="1021.84" y1="811.00" x2="1021.84" y2="823.00" stroke="#0f172a" stroke-width="1.8"/>
<line x1="1137.09" y1="811.00" x2="1137.09" y2="823.00" stroke="#0f172a" stroke-width="1.8"/>
<text x="334" y="823.00" text-anchor="end" fill="#0f172a" font-size="20" font-family="Manrope,Arial,sans-serif">Status quo ASC</text>
<text x="1089.46" y="823.00" text-anchor="start" fill="#0f172a" font-size="18" font-family="Manrope,Arial,sans-serif" font-weight="700">+1.621</text>
<text x="770.00" y="914" text-anchor="middle" fill="#475569" font-size="20" font-family="Manrope,Arial,sans-serif">Coefficient β</text>
<rect x="360" y="860" width="24" height="24" rx="6" fill="#dc6b5f"/>
<text x="394" y="878" fill="#0f172a" font-size="18" font-family="Manrope,Arial,sans-serif">Push</text>
<rect x="580" y="860" width="24" height="24" rx="6" fill="#2a9d8f"/>
<text x="614" y="878" fill="#0f172a" font-size="18" font-family="Manrope,Arial,sans-serif">Pull</text>
<rect x="800" y="860" width="24" height="24" rx="6" fill="#3a86c8"/>
<text x="834" y="878" fill="#0f172a" font-size="18" font-family="Manrope,Arial,sans-serif">Support/process</text>
<rect x="1020" y="860" width="24" height="24" rx="6" fill="#6d597a"/>
<text x="1054" y="878" fill="#0f172a" font-size="18" font-family="Manrope,Arial,sans-serif">Status quo</text>
<rect x="1220" y="210" width="300" height="600" rx="18" fill="#f7fbff" stroke="#d6e6f6"/>
<text x="1240" y="252" fill="#0f172a" font-size="24" font-family="Manrope,Arial,sans-serif" font-weight="800">Model notes</text>
<text x="1240" y="300" fill="#475569" font-size="18" font-family="Manrope,Arial,sans-serif">• n = 320</text>
<text x="1240" y="346" fill="#475569" font-size="18" font-family="Manrope,Arial,sans-serif">• Log-likelihood = -1582.45</text>
<text x="1240" y="392" fill="#475569" font-size="18" font-family="Manrope,Arial,sans-serif">• McFadden rho² = 0.28</text>
<text x="1240" y="438" fill="#475569" font-size="18" font-family="Manrope,Arial,sans-serif">• ASC = +1.621</text>
<text x="1240" y="484" fill="#475569" font-size="18" font-family="Manrope,Arial,sans-serif">• Strongest negative: ban all motorcycles</text>
<text x="1240" y="530" fill="#475569" font-size="18" font-family="Manrope,Arial,sans-serif">• Strongest positive: financial support</text>
<text x="800" y="930" text-anchor="middle" fill="#475569" font-size="16" font-family="Manrope,Arial,sans-serif">Source: CIEMB revised manuscript Table 3, CI shown as ±1.96×SE.</text>
</svg>